ffmpeg version 5.0.1-static https://johnvansickle.com/ffmpeg/  Copyright (c) 2000-2022 the FFmpeg developers
  built with gcc 8 (Debian 8.3.0-6)
  configuration: --enable-gpl --enable-version3 --enable-static --disable-debug --disable-ffplay --disable-indev=sndio --disable-outdev=sndio --cc=gcc --enable-fontconfig --enable-frei0r --enable-gnutls --enable-gmp --enable-libgme --enable-gray --enable-libfribidi --enable-libass --enable-libfreetype --enable-libmp3lame --enable-libopencore-amrnb --enable-libopencore-amrwb --enable-libopenjpeg --enable-librubberband --enable-libsoxr --enable-libspeex --enable-libsrt --enable-libvorbis --enable-libopus --enable-libtheora --enable-libvidstab --enable-libvo-amrwbenc --enable-libvpx --enable-libwebp --enable-libx264 --enable-libx265 --enable-libxml2 --enable-libxvid --enable-libzimg
  libavutil      57. 17.100 / 57. 17.100
  libavcodec     59. 18.100 / 59. 18.100
  libavformat    59. 16.100 / 59. 16.100
  libavdevice    59.  4.100 / 59.  4.100
  libavfilter     8. 24.100 /  8. 24.100
  libswscale      6.  4.100 /  6.  4.100
  libswresample   4.  3.100 /  4.  3.100
  libpostproc    56.  3.100 / 56.  3.100
Input #0, image2, from '../AnimationData/Spin/%03dspin.png':
  Duration: 00:00:14.40, start: 0.000000, bitrate: N/A
  Stream #0:0: Video: png, rgba(pc), 1920x1440 [SAR 11811:11811 DAR 4:3], 25 fps, 25 tbr, 25 tbn
Stream mapping:
  Stream #0:0 -> #0:0 (png (native) -> h264 (libx264))
Press [q] to stop, [?] for help
[libx264 @ 0xb9bda80] using SAR=1/1
[libx264 @ 0xb9bda80] using cpu capabilities: MMX2 SSE2Fast SSSE3 SSE4.2 AVX FMA3 BMI2 AVX2
[libx264 @ 0xb9bda80] profile High, level 5.1, 4:2:0, 8-bit
[libx264 @ 0xb9bda80] 264 - core 164 r3094 bfc87b7 - H.264/MPEG-4 AVC codec - Copyleft 2003-2022 - http://www.videolan.org/x264.html - options: cabac=1 ref=3 deblock=1:0:0 analyse=0x3:0x113 me=hex subme=7 psy=1 psy_rd=1.00:0.00 mixed_ref=1 me_range=16 chroma_me=1 trellis=1 8x8dct=1 cqm=0 deadzone=21,11 fast_pskip=1 chroma_qp_offset=-2 threads=45 lookahead_threads=7 sliced_threads=0 nr=0 decimate=1 interlaced=0 bluray_compat=0 constrained_intra=0 bframes=3 b_pyramid=2 b_adapt=1 b_bias=0 direct=1 weightb=1 open_gop=0 weightp=2 keyint=250 keyint_min=25 scenecut=40 intra_refresh=0 rc_lookahead=40 rc=crf mbtree=1 crf=23.0 qcomp=0.60 qpmin=0 qpmax=69 qpstep=4 ip_ratio=1.40 aq=1:1.00
Output #0, mp4, to '../AnimationData/Spin/Spin.mp4':
  Metadata:
    encoder         : Lavf59.16.100
  Stream #0:0: Video: h264 (avc1 / 0x31637661), yuv420p(tv, progressive), 1920x1440 [SAR 1:1 DAR 4:3], q=2-31, 72 fps, 18432 tbn
    Metadata:
      encoder         : Lavc59.18.100 libx264
    Side data:
      cpb: bitrate max/min/avg: 0/0/0 buffer size: 0 vbv_delay: N/A
frame=    3 fps=0.0 q=0.0 size=       0kB time=00:00:00.00 bitrate=N/A dup=2 drop=0 speed=   0x    frame=   33 fps=0.0 q=0.0 size=       0kB time=00:00:00.00 bitrate=N/A dup=2 drop=0 speed=   0x    frame=   77 fps= 75 q=0.0 size=       0kB time=00:00:00.00 bitrate=N/A dup=2 drop=0 speed=   0x    frame=  125 fps= 82 q=32.0 size=       0kB time=00:00:00.45 bitrate=   0.8kbits/s dup=2 drop=0 speed= 0.3x    frame=  176 fps= 86 q=32.0 size=     256kB time=00:00:01.16 bitrate=1797.8kbits/s dup=2 drop=0 speed=0.572x    frame=  225 fps= 88 q=32.0 size=     512kB time=00:00:01.84 bitrate=2270.7kbits/s dup=2 drop=0 speed=0.72x    frame=  277 fps= 90 q=32.0 size=     768kB time=00:00:02.56 bitrate=2448.7kbits/s dup=2 drop=0 speed=0.831x    frame=  327 fps= 91 q=32.0 size=     768kB time=00:00:03.26 bitrate=1927.7kbits/s dup=2 drop=0 speed=0.908x    frame=  362 fps= 88 q=-1.0 Lsize=    1559kB time=00:00:04.98 bitrate=2561.3kbits/s dup=2 drop=0 speed=1.21x    
video:1556kB audio:0kB subtitle:0kB other streams:0kB global headers:0kB muxing overhead: 0.159680%
[libx264 @ 0xb9bda80] frame I:2     Avg QP:24.32  size: 30890
[libx264 @ 0xb9bda80] frame P:351   Avg QP:23.81  size:  4305
[libx264 @ 0xb9bda80] frame B:9     Avg QP:26.05  size:  2258
[libx264 @ 0xb9bda80] consecutive B-frames: 95.3%  3.9%  0.8%  0.0%
[libx264 @ 0xb9bda80] mb I  I16..4: 23.0% 68.4%  8.6%
[libx264 @ 0xb9bda80] mb P  I16..4:  0.4%  1.1%  0.1%  P16..4:  8.5%  2.4%  0.9%  0.0%  0.0%    skip:86.7%
[libx264 @ 0xb9bda80] mb B  I16..4:  0.2%  0.1%  0.0%  B16..8: 11.8%  1.2%  0.1%  direct: 0.0%  skip:86.5%  L0:47.9% L1:49.2% BI: 2.8%
[libx264 @ 0xb9bda80] 8x8 transform intra:70.8% inter:65.8%
[libx264 @ 0xb9bda80] coded y,uvDC,uvAC intra: 6.2% 5.5% 2.3% inter: 0.8% 1.4% 0.2%
[libx264 @ 0xb9bda80] i16 v,h,dc,p: 64% 24% 11%  1%
[libx264 @ 0xb9bda80] i8 v,h,dc,ddl,ddr,vr,hd,vl,hu: 20%  5% 73%  0%  1%  0%  0%  0%  0%
[libx264 @ 0xb9bda80] i4 v,h,dc,ddl,ddr,vr,hd,vl,hu: 45% 16% 27%  2%  3%  2%  1%  2%  2%
[libx264 @ 0xb9bda80] i8c dc,h,v,p: 91%  4%  5%  0%
[libx264 @ 0xb9bda80] Weighted P-Frames: Y:0.0% UV:0.0%
[libx264 @ 0xb9bda80] ref P L0: 79.1%  2.8% 13.4%  4.6%
[libx264 @ 0xb9bda80] ref B L0: 84.3% 15.7%
[libx264 @ 0xb9bda80] kb/s:2534.91
